<?xml version="1.0" encoding="utf-8"?>
<!-- Generator: Adobe Illustrator 23.0.2, SVG Export Plug-In . SVG Version: 6.00 Build 0)  -->
<svg version="1.1" id="Capa_1" xmlns="http://www.w3.org/2000/svg" xmlns:xlink="http://www.w3.org/1999/xlink" x="0px" y="0px"
	 viewBox="0 0 612 792" style="enable-background:new 0 0 612 792;" xml:space="preserve">
<style type="text/css">
	.st0{fill:#FFFFFF;}
</style>
<g>
	<path d="M26.89,400.35c0-2.07,0-4.14,0-6.22c1.55-4.76,4.78-8.29,8.25-11.77c85.77-85.73,171.52-171.49,257.18-257.34
		c3.66-3.67,7.25-7,12.44-8.13c1.24,0,2.49,0,3.73,0c4.86,1.22,8.46,4.11,12,7.66c85.55,85.81,171.2,171.52,256.87,257.21
		c3.68,3.68,7.29,7.31,8.99,12.37c0,2.07,0,4.14,0,6.22c-3.42,9.46-10.36,12.63-20.09,12.42c-17.5-0.39-35.01-0.11-52.52-0.1
		c-1.2,0-2.4,0.1-3.84,0.17c0,1.64,0,2.97,0,4.3c0,79.24,0.01,158.49-0.01,237.73c0,10.09-6.33,16.68-16.38,16.7
		c-36.77,0.08-73.55,0.08-110.32-0.01c-9.73-0.02-16.09-6.59-16.1-16.35c-0.05-30.45-0.02-60.91-0.02-91.36c0-7.03,0-14.06,0-21.24
		c-40.43,0-80.53,0-120.88,0c0,1.5,0,2.73,0,3.97c-0.01,35.63-0.02,71.26-0.04,106.9c-0.01,12.15-6.02,18.19-18.09,18.19
		c-29.42,0.01-58.84,0.01-88.25,0.01c-6.84,0-13.67,0.08-20.51-0.03c-8.03-0.13-14.23-5.01-15.67-12.44
		c-0.46-2.41-0.33-4.95-0.33-7.43c-0.01-78.41-0.01-156.83,0-235.24c0-1.2,0-2.39,0-3.83c-1.83,0-3.17,0-4.51,0
		c-18.54,0-37.08,0.02-55.62-0.01c-6.02-0.01-10.86-2.35-14-7.65C28.29,403.54,27.65,401.91,26.89,400.35z M214.91,640.33
		c0-1.61,0-2.93,0-4.25c0-35.84-0.01-71.69,0.01-107.53c0-10.73,6.23-17.26,16.82-17.28c50.03-0.06,100.07-0.08,150.1,0.08
		c3.15,0.01,6.63,1.03,9.37,2.6c5.56,3.19,7.18,8.66,7.17,14.87c-0.06,35.74-0.03,71.48-0.03,107.22c0,1.4,0,2.8,0,4.18
		c27.08,0,53.62,0,80.4,0c0-1.73,0-3.16,0-4.6c0.01-78.52,0.14-157.05-0.13-235.57c-0.04-11.7,7.38-19.19,18.79-18.62
		c10.44,0.53,20.92,0.1,31.38,0.09c1.09,0,2.17,0,3.38,0c-75.51-75.42-150.72-150.55-225.05-224.79
		C232.2,231.4,156.89,306.48,81.51,381.62c0.98,0,2.1,0,3.22,0c11.4,0.01,22.79-0.06,34.19,0.04c8.89,0.08,15.21,6.37,15.55,15.24
		c0.04,1.14,0.03,2.28,0.03,3.42c0.01,78.63,0.01,157.25,0.02,235.88c0,1.31,0,2.63,0,4.13
		C161.38,640.33,187.86,640.33,214.91,640.33z"/>
	<path class="st0" d="M26.89,400.35c0.75,1.56,1.4,3.19,2.28,4.67c3.14,5.3,7.98,7.64,14,7.65c18.54,0.03,37.08,0.01,55.62,0.01
		c1.34,0,2.67,0,4.51,0c0,1.43,0,2.63,0,3.83c0,78.41-0.01,156.83,0,235.24c0,2.48-0.14,5.02,0.33,7.43
		c1.44,7.44,7.63,12.32,15.67,12.44c6.83,0.11,13.67,0.03,20.51,0.03c29.42,0,58.84,0,88.25-0.01c12.07,0,18.09-6.04,18.09-18.19
		c0.02-35.63,0.03-71.26,0.04-106.9c0-1.23,0-2.46,0-3.97c40.34,0,80.45,0,120.88,0c0,7.18,0,14.21,0,21.24
		c0,30.45-0.03,60.91,0.02,91.36c0.01,9.76,6.37,16.33,16.1,16.35c36.77,0.09,73.55,0.09,110.32,0.01
		c10.06-0.02,16.38-6.61,16.38-16.7c0.01-79.24,0.01-158.49,0.01-237.73c0-1.33,0-2.66,0-4.3c1.44-0.07,2.64-0.17,3.84-0.17
		c17.51-0.01,35.02-0.29,52.52,0.1c9.73,0.22,16.68-2.96,20.09-12.42c0,92,0,184,0,276c-186.49,0-372.97,0-559.46,0
		C26.89,584.35,26.89,492.35,26.89,400.35z"/>
	<path class="st0" d="M586.35,394.14c-1.7-5.07-5.31-8.7-8.99-12.37c-85.67-85.69-171.32-171.4-256.87-257.21
		c-3.54-3.55-7.15-6.44-12-7.66c92.62,0,185.24,0,277.87,0C586.35,209.31,586.35,301.72,586.35,394.14z"/>
	<path class="st0" d="M304.76,116.89c-5.18,1.14-8.77,4.46-12.44,8.13c-85.66,85.85-171.4,171.61-257.18,257.34
		c-3.48,3.47-6.7,7-8.25,11.77c0-92.36,0-184.73,0-277.24C119.51,116.89,212.13,116.89,304.76,116.89z"/>
	<path class="st0" d="M214.91,640.33c-27.05,0-53.52,0-80.4,0c0-1.5,0-2.82,0-4.13c-0.01-78.63-0.01-157.25-0.02-235.88
		c0-1.14,0.01-2.28-0.03-3.42c-0.34-8.87-6.66-15.17-15.55-15.24c-11.39-0.1-22.79-0.04-34.19-0.04c-1.12,0-2.23,0-3.22,0
		c75.38-75.13,150.69-150.21,225.6-224.88c74.33,74.25,149.54,149.37,225.05,224.79c-1.21,0-2.3,0-3.38,0
		c-10.46,0.01-20.95,0.43-31.38-0.09c-11.41-0.57-18.83,6.92-18.79,18.62c0.27,78.52,0.13,157.04,0.13,235.57c0,1.43,0,2.87,0,4.6
		c-26.78,0-53.32,0-80.4,0c0-1.38,0-2.78,0-4.18c0-35.74-0.03-71.48,0.03-107.22c0.01-6.21-1.61-11.68-7.17-14.87
		c-2.74-1.57-6.22-2.59-9.37-2.6c-50.03-0.15-100.07-0.14-150.1-0.08c-10.59,0.01-16.81,6.54-16.82,17.28
		c-0.01,35.84-0.01,71.69-0.01,107.53C214.91,637.4,214.91,638.72,214.91,640.33z"/>
</g>
</svg>
