<?xml version="1.0" encoding="utf-8"?>
<!-- Generator: Adobe Illustrator 23.0.2, SVG Export Plug-In . SVG Version: 6.00 Build 0)  -->
<svg version="1.1" id="Capa_1" xmlns="http://www.w3.org/2000/svg" xmlns:xlink="http://www.w3.org/1999/xlink" x="0px" y="0px"
	 viewBox="0 0 612 792" style="enable-background:new 0 0 612 792;" xml:space="preserve">
<style type="text/css">
	.st0{fill:#FFFFFF;}
</style>
<g>
	<path class="st0" d="M51.03,652.79c0-170.39,0-341,0-511.7c170.54,0,341.11,0,511.82,0c0,170.44,0,340.96,0,511.7
		C392.35,652.79,221.7,652.79,51.03,652.79z M541.51,397.19c0.02-129.64-105.51-234.99-235.15-234.76
		C177.81,162.65,72.55,267.99,72.49,396.48c-0.06,129.78,104.96,234.91,234.84,235.09C435.49,631.75,541.49,525.66,541.51,397.19z"
		/>
	<path d="M541.51,397.19c-0.02,128.47-106.02,234.56-234.18,234.39C177.45,631.39,72.42,526.26,72.49,396.48
		c0.06-128.49,105.32-233.83,233.87-234.05C436.01,162.2,541.53,267.55,541.51,397.19z M93.94,397.16
		c0,117.42,95.52,212.82,213.2,212.92c116.41,0.1,212.88-95.87,212.92-211.82c0.05-118.57-95.07-214.39-212.76-214.33
		C189.34,183.98,93.94,279.33,93.94,397.16z"/>
	<path class="st0" d="M93.94,397.16c0-117.83,95.4-213.18,213.36-213.24c117.69-0.06,212.81,95.76,212.76,214.33
		c-0.04,115.96-96.51,211.92-212.92,211.82C189.46,609.98,93.94,514.58,93.94,397.16z M436.06,302.6
		c-5.17-7.13-12.15-9.24-20.24-9.23c-34.64,0.06-69.28,0.04-103.91,0.04c-40.13,0-80.27,0.02-120.4-0.03
		c-7.91-0.01-14.68,2.16-19.7,8.98c1.06,0.91,1.86,1.73,2.78,2.39c41.94,30.4,83.92,60.76,125.79,91.26
		c2.94,2.15,4.7,1.63,7.32-0.29c27.99-20.42,56.07-40.71,84.12-61.04C406.51,324.04,421.19,313.39,436.06,302.6z M260.64,380.87
		c-28.98,20.99-57.78,41.85-86.8,62.87c4.96,5.53,11.01,6.76,17.47,6.76c52.47,0.02,104.94-0.01,157.41,0.08
		c3.27,0.01,4.58-0.97,5.27-4.28c3.22-15.52,11.05-28.4,23.09-38.71c0.95-0.81,1.87-1.66,3.06-2.72
		c-10.19-7.41-20.08-14.45-29.77-21.75c-2.65-2-4.31-1.68-6.85,0.2c-13.09,9.7-26.34,19.16-39.67,28.8
		C289.35,401.63,275.07,391.3,260.64,380.87z M167.8,434.35c28.31-20.52,55.59-40.28,83.35-60.4
		c-27.98-20.26-55.38-40.1-83.35-60.35C167.8,354.04,167.8,393.57,167.8,434.35z M438.44,498.53c-2.03,0.67-3.73,1.26-5.45,1.79
		c-25.75,8.02-54.55-1.03-57.65-33.49c-2.62-27.37,13.43-51.61,41.3-54.54c18.4-1.93,34.71,7.15,39.68,23.32
		c3.75,12.21,3.56,24.41-4.38,35.29c-2.42,3.31-5.96,6-10.3,4.31c-4.59-1.79-3.69-6.25-3.18-9.99c1.07-7.91,2.42-15.79,3.63-23.68
		c1.57-10.21,1.56-10.21-8.88-12.03c-25.53-4.44-46.65,13.41-45.05,38.06c0.74,11.36,8.02,18.68,18.27,18.35
		c6.72-0.22,12.13-3.15,16.54-8.11c1-1.12,1.97-2.27,3.26-3.76c3.06,9.84,8.25,13.07,17.61,11.65c8.8-1.34,15.37-6.02,20-13.51
		c12.41-20.05,5.6-49.34-14.32-61.84c-25.12-15.76-70.51-7.71-83.36,33.69c-7.42,23.91-0.64,47.47,17.26,59.52
		c17.05,11.48,35.4,10.87,54.11,4.78c1.21-0.39,2.29-1.16,3.59-1.84C440.18,503.72,439.35,501.23,438.44,498.53z M439.73,394.11
		c0-26.8,0-53.22,0-80.41c-28.02,20.31-55.38,40.14-83.13,60.24c8.41,6.12,16.52,11.4,23.88,17.56c6.49,5.43,12.19,7.16,20.73,3.61
		C413.41,390.04,426.59,390.76,439.73,394.11z"/>
	<path d="M436.06,302.6c-14.87,10.78-29.55,21.44-44.24,32.08c-28.05,20.33-56.13,40.63-84.12,61.04c-2.62,1.91-4.38,2.43-7.32,0.29
		c-41.87-30.5-83.84-60.86-125.79-91.26c-0.92-0.66-1.72-1.48-2.78-2.39c5.02-6.81,11.8-8.99,19.7-8.98
		c40.13,0.05,80.27,0.03,120.4,0.03c34.64,0,69.28,0.02,103.91-0.04C423.91,293.36,430.89,295.47,436.06,302.6z"/>
	<path d="M260.64,380.87c14.43,10.44,28.7,20.76,43.22,31.25c13.32-9.64,26.58-19.11,39.67-28.8c2.54-1.88,4.2-2.2,6.85-0.2
		c9.69,7.3,19.58,14.34,29.77,21.75c-1.18,1.05-2.11,1.9-3.06,2.72c-12.05,10.31-19.87,23.19-23.09,38.71
		c-0.69,3.3-1.99,4.28-5.27,4.28c-52.47-0.09-104.94-0.06-157.41-0.08c-6.46,0-12.51-1.23-17.47-6.76
		C202.87,422.71,231.66,401.86,260.64,380.87z"/>
	<path d="M167.8,434.35c0-40.79,0-80.31,0-120.75c27.97,20.25,55.37,40.09,83.35,60.35C223.39,394.07,196.11,413.84,167.8,434.35z"
		/>
	<path d="M438.44,498.53c0.9,2.7,1.73,5.18,2.66,7.96c-1.3,0.68-2.38,1.44-3.59,1.84c-18.71,6.08-37.06,6.7-54.11-4.78
		c-17.9-12.05-24.68-35.61-17.26-59.52c12.85-41.4,58.24-49.45,83.36-33.69c19.92,12.5,26.73,41.79,14.32,61.84
		c-4.63,7.48-11.2,12.17-20,13.51c-9.36,1.42-14.55-1.81-17.61-11.65c-1.29,1.49-2.26,2.64-3.26,3.76
		c-4.4,4.96-9.82,7.89-16.54,8.11c-10.26,0.33-17.53-6.99-18.27-18.35c-1.61-24.65,19.52-42.49,45.05-38.06
		c10.44,1.81,10.45,1.82,8.88,12.03c-1.21,7.89-2.56,15.77-3.63,23.68c-0.5,3.74-1.41,8.2,3.18,9.99c4.34,1.69,7.89-0.99,10.3-4.31
		c7.94-10.88,8.13-23.08,4.38-35.29c-4.97-16.17-21.28-25.25-39.68-23.32c-27.87,2.93-43.91,27.17-41.3,54.54
		c3.11,32.46,31.9,41.52,57.65,33.49C434.71,499.79,436.41,499.2,438.44,498.53z M403.75,462.64c-0.05,4.34,0.43,8.59,5.2,10.28
		c4.54,1.61,8.37-0.51,10.86-4.07c2.23-3.19,3.96-6.9,5.09-10.63c1.19-3.93,1.24-8.19,2.11-12.24c0.92-4.31-1.09-5.16-4.81-5.04
		C412.21,441.26,404,450.81,403.75,462.64z"/>
	<path d="M439.73,394.11c-13.14-3.35-26.32-4.07-38.52,1c-8.54,3.55-14.24,1.82-20.73-3.61c-7.36-6.17-15.47-11.44-23.88-17.56
		c27.75-20.11,55.11-39.93,83.13-60.24C439.73,340.9,439.73,367.32,439.73,394.11z"/>
	<path class="st0" d="M403.75,462.63c0.25-11.82,8.46-21.38,18.45-21.7c3.72-0.12,5.73,0.73,4.81,5.04
		c-0.87,4.05-0.91,8.31-2.11,12.24c-1.13,3.73-2.86,7.44-5.09,10.63c-2.49,3.56-6.32,5.68-10.86,4.07
		C404.19,471.22,403.7,466.97,403.75,462.63z"/>
</g>
</svg>
