<?xml version="1.0" encoding="utf-8"?>
<!-- Generator: Adobe Illustrator 23.0.2, SVG Export Plug-In . SVG Version: 6.00 Build 0)  -->
<svg version="1.1" id="Capa_2" xmlns="http://www.w3.org/2000/svg" xmlns:xlink="http://www.w3.org/1999/xlink" x="0px" y="0px"
	 viewBox="0 0 612 792" style="enable-background:new 0 0 612 792;" xml:space="preserve">
<style type="text/css">
	.st0{fill:#211915;}
	.st1{fill:none;stroke:#211915;stroke-miterlimit:10;}
</style>
<path class="st0" d="M365.4,367.95c27.37,0,70.4-7.04,92.39-34.74c5.68-7.16,9.06-14.46,11.01-21.17
	c4.67-16.13,0.82-33.47-9.51-46.71c-12.62-16.18-27.3-19.77-37.9-20.65c-14.88-1.23-38.46,5.43-41.92,40.21
	c-1.63,16.37,11.11,28.27,25.84,34.25c-2.31-3.31-3.9-7.71-3.89-12.93c0.02-8.75,6.38-16.09,15.5-16.1
	c17.73-0.01,15.73,19.17,15.63,19.53c0,0,0.24,6.01-6.42,11.44c-6.85,5.58-15.92,8.39-28.51,5.18
	c-16.01-4.08-35.55-26.05-35.55-51.25c0-11.57,3.34-28.35,19.53-45.06c12.61-13.01,30.98-21.02,51.07-21.02
	c33.62,0,61.94,30.05,69.09,60.62c1.15,4.88,1.75,9.77,1.75,14.56c-0.71,14.71-4.23,27.6-9.74,38.78
	c-20.45,41.5-68.43,59.43-102.81,59.65c-1.97,0.01-3.9-0.55-5.56-1.63L365.4,367.95z"/>
<path class="st0" d="M272.06,249.46c-14.09-23.46-42.29-56.72-77.36-61.31c-9.06-1.19-17.06-0.32-23.82,1.47
	c-16.23,4.3-29.11,16.53-35.14,32.2c-7.37,19.15-2.89,33.58,1.81,43.12c6.61,13.4,24.46,30.17,56.06,15.23
	c14.87-7.03,18.51-24.08,16.05-39.79c-1.65,3.68-4.6,7.31-9.08,9.99c-7.51,4.49-17.08,2.82-21.78-5
	c-9.14-15.19,8.34-23.36,8.69-23.46c0,0,5.03-3.3,13.11-0.39c8.31,2.99,15.39,9.33,19.13,21.77c4.74,15.82-4.03,43.89-25.63,56.87
	c-9.92,5.96-26.02,11.74-48.68,6.46c-17.65-4.11-33.97-15.73-44.32-32.95c-17.31-28.82-6.14-68.57,16.39-90.44
	c3.59-3.5,7.47-6.53,11.58-9c12.98-6.97,25.84-10.59,38.26-11.62c46.1-3.84,86.18,28.05,104.07,57.41c1.03,1.68,1.54,3.63,1.47,5.6
	L272.06,249.46z"/>
<path class="st0" d="M219.58,389.65c-14.11,23.45-30.26,63.95-17.86,97.08c3.2,8.56,7.72,15.22,12.47,20.34
	c11.41,12.32,28.26,17.95,44.93,15.93c20.37-2.47,31.02-13.2,37.23-21.83c8.73-12.12,15.17-35.75-12.84-56.65
	c-13.19-9.83-29.95-5.05-42.67,4.48c4.03-0.27,8.62,0.63,13.08,3.33c7.49,4.53,10.5,13.76,5.8,21.58
	c-9.13,15.19-24.54,3.6-24.79,3.32c0,0-5.27-2.89-6.49-11.4c-1.25-8.74,1.02-17.97,10.26-27.1c11.75-11.61,40.65-17.03,62.24-4.04
	c9.91,5.96,22.58,17.48,28.54,39.96c4.65,17.52,2.04,37.38-8.32,54.6c-17.33,28.81-57.68,37.58-87.56,27.95
	c-4.77-1.53-9.27-3.54-13.38-6.01c-12.24-8.19-21.47-17.85-28.21-28.34c-25.02-38.92-15.65-89.27,1.89-118.84
	c1.01-1.7,2.49-3.06,4.26-3.92L219.58,389.65z"/>
<path class="st0" d="M304.22,589.09c0,36.13-26.92,55.76-47.78,55.76c-13.66,0-30.56-4.02-34.18-23.16
	c-0.35-1.84-0.57-3.83-0.66-5.97c0-3.2,0.56-6.25,1.56-9.06c0.15-0.43,0.31-0.85,0.47-1.26c1.44-2.26,2.86-4.48,4.3-6.74
	c2.43-2.61,5.41-4.89,8.7-7.04c1.14-0.75,2.38-1.35,3.69-1.73c1.82-0.53,3.68-0.8,5.53-0.8c12.05,0,21.81,9.76,21.81,21.81
	c0,6.11-3.35,12.39-11.99,15.48c0.26,0.02,0.51,0.02,0.77,0.02c20.29,0.08,35.33-10.63,34.11-45.29
	c-0.16-4.55-1.93-19.26-1.93-19.26l10.97-6.19C299.59,555.66,304.22,568.23,304.22,589.09z"/>
<path class="st0" d="M291.23,227.09c0,22.45-3.79,43.62-9.62,60.4c-0.04,0.13-0.08,0.25-0.12,0.38
	c-4.01,12.49-12.99,28.87-28.09,50.35c-1.18,1.68-2.4,3.39-3.66,5.13c-4.09,5.68-8.59,11.7-13.52,18.08
	c-0.18-0.01-0.36-0.01-0.54-0.01c-5.61,0-10.85,1.57-15.31,4.31c4.76-7.72,13.43-18.01,22.65-30.49c2.24-3.04,4.52-6.21,6.78-9.5
	c0.48-0.7,0.96-1.41,1.44-2.12c12.31-18.29,23.8-40.26,26.5-64.98c0.39-3.57,0.6-7.2,0.6-10.88c0-38.48-2.35-59.44-9.16-69.37
	c-4.11,5.22-7.81,11.04-11.05,17.34c-3.87-7.35-10.8-13.12-19.27-15.91c0.77-2.1,1.58-4.16,2.44-6.16
	c7.34-17.27,17.99-30.97,30.66-40.86c5.39,5.86,9.71,16.47,12.89,29.99C289.04,180.58,291.23,203.41,291.23,227.09z"/>
<path class="st0" d="M248.24,317.14c-0.73,1.82-1.58,3.5-2.52,5.02c-1.71,2.78-3.75,5.04-6.01,6.61c-0.25-0.61-0.5-1.22-0.74-1.84
	c-0.3-0.78-0.58-1.57-0.86-2.38c-0.22-0.62-0.42-1.25-0.62-1.88c-0.01-0.02-0.02-0.04-0.02-0.06c-0.22-0.68-0.42-1.36-0.62-2.06
	c-0.23-0.8-0.45-1.61-0.66-2.44c-0.19-0.71-0.37-1.42-0.54-2.15c0-0.01-0.01-0.03-0.01-0.04c-0.16-0.7-0.32-1.4-0.47-2.11
	c-0.56-2.55-1.04-5.18-1.45-7.9c-0.11-0.65-0.21-1.3-0.3-1.96c-0.13-0.93-0.26-1.87-0.38-2.82c-0.13-1.04-0.26-2.09-0.37-3.15
	c-0.08-0.69-0.15-1.38-0.22-2.08c-0.08-0.68-0.14-1.36-0.2-2.04c-0.02-0.23-0.04-0.46-0.06-0.7c-0.02-0.23-0.04-0.47-0.06-0.7
	c-0.04-0.46-0.08-0.93-0.12-1.4c-0.01-0.1-0.02-0.21-0.03-0.32c-0.01-0.08-0.01-0.15-0.02-0.23c-0.01-0.14-0.02-0.28-0.03-0.42
	c-0.03-0.34-0.05-0.68-0.08-1.02c-0.02-0.28-0.04-0.56-0.06-0.85c-0.06-0.86-0.12-1.72-0.17-2.58v-0.07
	c-0.03-0.43-0.06-0.87-0.08-1.31c-0.01-0.14-0.02-0.29-0.03-0.44c0-0.14-0.01-0.29-0.02-0.43c-0.01-0.15-0.02-0.3-0.02-0.45
	c-0.03-0.59-0.06-1.18-0.09-1.77c-0.11-2.17-0.2-4.37-0.27-6.58c-0.07-2.07-0.12-4.16-0.17-6.26c-0.02-0.9-0.04-1.8-0.05-2.7
	c-0.02-0.9-0.03-1.81-0.04-2.72c-0.1-7.1-0.1-14.31-0.09-21.5v-8.38c-0.01-7.17,0.39-14.04,1.17-20.6
	c6.44,3.57,11.82,9.32,15.39,15.87c-0.61,2.79-1.15,5.63-1.59,8.52c-1.17,7.48-1.79,15.25-1.79,23.22c0,1.96,0.01,3.92,0.03,5.87
	c0.02,1.87,0.06,3.74,0.1,5.6c0.03,1.2,0.06,2.4,0.1,3.59v0.01c0.01,0.35,0.02,0.69,0.04,1.03c0.01,0.58,0.04,1.17,0.06,1.74
	c0.05,1.36,0.11,2.72,0.18,4.07c0.04,0.87,0.09,1.74,0.14,2.61c0.15,2.71,0.34,5.4,0.55,8.06c0.1,1.24,0.21,2.47,0.32,3.69
	c0.11,1.22,0.23,2.44,0.36,3.65s0.26,2.41,0.41,3.6c0.14,1.2,0.29,2.38,0.45,3.56c0.11,0.87,0.23,1.73,0.36,2.59
	c0.06,0.46,0.13,0.93,0.2,1.39c0.14,0.93,0.29,1.85,0.44,2.77c0.08,0.48,0.16,0.95,0.24,1.42
	C248.02,315.91,248.13,316.53,248.24,317.14z"/>
<path class="st0" d="M467.58,427.89c-0.68-0.07-1.37-0.14-2.05-0.21c-10.07-1.1-21.76-3.98-34.04-8.15
	c-30.07-10.18-63.68-28-85.6-45.94c-3.66-2.99-6.99-5.99-9.93-8.96c-2.89-2.92-5.93-6.64-9.04-11
	c-12.58-17.59-26.44-45.53-37.55-73.08c1.34-5.63,2.43-11.59,3.23-17.8c9.53,27.47,22.02,57.85,43.05,83.63
	c4.94,6.06,10.36,11.87,16.32,17.32c19.54,17.89,44.93,31.98,78.73,38.84c-1.22-6.58-3.51-13.01-6.66-19.11
	c7.98-1.05,15.32-3.64,21.57-7.4c7.69,9.42,13.9,20,17.74,30.59C465.96,413.83,467.47,421.05,467.58,427.89z"/>
<path class="st0" d="M262.91,445.15c0,0,9.2,0.17,11.69,2.32l11.96,55.79c0,0-0.66,4.48-10.3,7.64L262.91,445.15z"/>
<path class="st1" d="M342.38,378.72"/>
<path class="st1" d="M342.38,378.72"/>
<path class="st1" d="M342.38,378.72"/>
<path class="st0" d="M281.56,372.41c-7.55,0-14.71,0.42-21.52,1.22L270,421.9h-13.18l-8.36-46.51
	c-37.58,7.1-64.05,25.86-87.13,45.69c-9.21,7.91-2.42,11.48,7.18,11.48c2.59,0,5.07,0.26,7.44,0.75
	c-2.92,5.29-4.58,11.37-4.58,17.84c0,1.6,0.1,3.18,0.3,4.72c-18.34,3.57-36.43,3.06-55.65-6.09c4.51-15.99,46.13-55.77,95.75-75.04
	c11.35-4.41,23.01-7.22,34.97-8.89l-1.35-7.51l8.62-13.95l4.17,20.22c23.42-1.9,47.97-0.06,73.69,2.3
	c1.54,4.89,5.36,9.07,10.51,11.81C324.39,374.41,303.55,372.41,281.56,372.41z"/>
</svg>
