<?xml version="1.0" encoding="utf-8"?>
<!-- Generator: Adobe Illustrator 23.0.2, SVG Export Plug-In . SVG Version: 6.00 Build 0)  -->
<svg version="1.1" id="Capa_1" xmlns="http://www.w3.org/2000/svg" xmlns:xlink="http://www.w3.org/1999/xlink" x="0px" y="0px"
	 viewBox="0 0 612 792" style="enable-background:new 0 0 612 792;" xml:space="preserve">
<style type="text/css">
	.st0{fill:#FFFFFF;}
</style>
<g>
	<path d="M393.69,603.84c-56.9,0-113.8,0-170.71,0c-3.51-0.61-7-1.43-10.53-1.81c-53.7-5.68-93.17-32.1-105.43-89.02
		c-2.16-10.02-3.48-20.21-5.19-30.32c0-56.9,0-113.8,0-170.71c0.61-3.51,1.43-7,1.81-10.53c5.69-53.75,32.13-93.21,89.02-105.43
		c10.02-2.15,20.21-3.48,30.32-5.19c56.9,0,113.8,0,170.71,0c3.51,0.61,7,1.43,10.53,1.81c53.71,5.69,93.22,32.15,105.43,89.02
		c2.15,10.02,3.48,20.21,5.19,30.32c0,56.9,0,113.8,0,170.71c-0.61,3.5-1.43,6.98-1.81,10.5c-5.67,53.69-32,93.16-89.01,105.45
		C414,600.8,403.8,602.13,393.69,603.84z M475.84,397.85c-0.02,0-0.04,0-0.05,0c0-30.87,1.3-61.82-0.31-92.61
		c-2.37-45.3-29.51-73.56-74.47-74.86c-61.7-1.78-123.53-1.77-185.23-0.01c-44.98,1.28-73.2,29.69-74.45,74.77
		c-1.7,61.4-1.7,122.91-0.01,184.31c1.25,45.43,29.71,73.7,75.27,74.94c61.1,1.65,122.28,1.12,183.4-0.13
		c13.74-0.28,28.41-5.39,40.77-11.87c24.97-13.11,33.66-37.39,34.78-63.76C476.83,458.41,475.84,428.11,475.84,397.85z"/>
	<path class="st0" d="M222.98,190.84c-10.11,1.71-20.31,3.04-30.32,5.19c-56.89,12.22-83.32,51.68-89.02,105.43
		c-0.37,3.53-1.19,7.02-1.81,10.53c0-40.38,0-80.76,0-121.15C142.22,190.84,182.6,190.84,222.98,190.84z"/>
	<path class="st0" d="M514.84,311.98c-1.71-10.11-3.04-20.3-5.19-30.32c-12.21-56.86-51.72-83.33-105.43-89.02
		c-3.53-0.37-7.02-1.19-10.53-1.81c40.38,0,80.76,0,121.15,0C514.84,231.22,514.84,271.6,514.84,311.98z"/>
	<path class="st0" d="M101.84,482.69c1.71,10.11,3.03,20.31,5.19,30.32c12.25,56.92,51.72,83.34,105.43,89.02
		c3.53,0.37,7.02,1.19,10.53,1.81c-40.23,0-80.46,0-121.15,0C101.84,563.45,101.84,523.07,101.84,482.69z"/>
	<path class="st0" d="M393.69,603.84c10.11-1.71,20.31-3.03,30.33-5.19c57.02-12.3,83.34-51.76,89.01-105.45
		c0.37-3.52,1.19-7,1.81-10.5c0,40.38,0,80.76,0,121.15C474.45,603.84,434.07,603.84,393.69,603.84z"/>
	<path class="st0" d="M475.84,397.85c0,30.26,0.99,60.57-0.3,90.77c-1.13,26.37-9.81,50.65-34.78,63.76
		c-12.35,6.48-27.03,11.59-40.77,11.87c-61.11,1.26-122.3,1.78-183.4,0.13c-45.56-1.23-74.02-29.51-75.27-74.94
		c-1.7-61.4-1.69-122.92,0.01-184.31c1.25-45.08,29.47-73.49,74.45-74.77c61.7-1.76,123.53-1.77,185.23,0.01
		c44.97,1.3,72.1,29.57,74.47,74.86c1.61,30.79,0.31,61.73,0.31,92.61C475.8,397.85,475.82,397.85,475.84,397.85z M414.49,397.68
		c0.17-58.76-46.87-106.21-105.58-106.5c-58.78-0.28-106.33,46.66-106.73,105.35c-0.4,59.17,46.92,106.9,106.04,106.96
		C366.98,503.56,414.32,456.42,414.49,397.68z M418.43,311.5c14.6,0.02,24.96-10.19,24.86-24.5c-0.1-14.26-10.79-24.76-25.08-24.61
		c-13.74,0.14-24.21,10.56-24.47,24.37C393.47,300.89,404.04,311.48,418.43,311.5z"/>
	<path d="M414.49,397.68c-0.17,58.74-47.51,105.88-106.27,105.81c-59.12-0.07-106.44-47.79-106.04-106.96
		c0.39-58.69,47.95-105.63,106.73-105.35C367.62,291.46,414.66,338.92,414.49,397.68z M239.75,397.48
		c-0.01,37.6,30.48,68.26,68.04,68.43c38.23,0.18,69.03-30.25,69.13-68.27c0.09-38.16-30.4-68.83-68.51-68.89
		C270.35,328.69,239.76,359.32,239.75,397.48z"/>
	<path d="M418.43,311.5c-14.39-0.02-24.96-10.61-24.69-24.74c0.26-13.81,10.73-24.23,24.47-24.37
		c14.29-0.14,24.98,10.35,25.08,24.61C443.39,301.31,433.03,311.51,418.43,311.5z"/>
	<path class="st0" d="M239.75,397.48c0.01-38.17,30.6-68.79,68.66-68.73c38.1,0.06,68.6,30.73,68.51,68.89
		c-0.09,38.02-30.9,68.45-69.13,68.27C270.23,465.75,239.73,435.08,239.75,397.48z"/>
</g>
</svg>
